Coordinates
version=1
nRows=14
nColumns=46
inDegrees=yes

Units are S.I. units (second, meters, Newtons, ...)
Angles are in degrees.

endheader
time	pelvis_tilt	pelvis_list	pelvis_rotation	pelvis_tx	pelvis_ty	pelvis_tz	bb_angle	bb_tx	bb_ty	bb_tz	hip_flexion_r	hip_adduction_r	hip_rotation_r	knee_angle_r	knee_angle_r_beta	ankle_angle_r	subtalar_angle_r	mtp_angle_r	crank_angle_r	hip_flexion_l	hip_adduction_l	hip_rotation_l	knee_angle_l	knee_angle_l_beta	ankle_angle_l	subtalar_angle_l	mtp_angle_l	crank_angle_l	lumbar_extension	lumbar_bending	lumbar_rotation	arm_flex_r	arm_add_r	arm_rot_r	elbow_flex_r	pro_sup_r	wrist_flex_r	wrist_dev_r	arm_flex_l	arm_add_l	arm_rot_l	elbow_flex_l	pro_sup_l	wrist_flex_l	wrist_dev_l
      2.50000000	    -18.61424223	     -7.04451866	      0.82419378	      0.26602531	      1.13752657	     -0.24523676	      0.00000000	      0.50000000	      0.00000000	      0.25000000	     71.52571749	     -0.96848626	     -4.62065030	    108.27092780	      1.88968417	     -7.07666741	    -13.79680021	      0.00000000	      0.00000000	     40.29751470	     -8.81388164	      5.58171521	     29.24230444	      0.51037449	    -22.51383110	    -14.58991707	      0.00000000	      0.00000000	    -55.42600708	      3.95557310	      8.60221943	     81.42593094	    -11.63975655	     52.83359747	     24.69308235	     42.21943317	      0.00000000	      0.00000000	     79.22459795	     -8.96401710	     47.49916513	     33.44504360	     42.37872115	      0.00000000	      0.00000000
      2.50500000	    -18.76346391	     -7.47685414	      0.53650803	      0.26681494	      1.13853782	     -0.24601899	      0.00000000	      0.50000000	      0.00000000	      0.25000000	     72.45527222	     -0.63868194	     -4.82845445	    108.83423307	      1.89951571	     -6.04507788	    -13.14050036	      0.00000000	      0.00000000	     39.11078328	     -9.52251051	      4.81224623	     27.49605545	      0.47989670	    -23.66009758	    -14.03479173	      0.00000000	      0.00000000	    -55.49585566	      4.10519014	      9.01606158	     81.63890217	    -11.46239038	     53.16888200	     24.18491284	     42.21254366	      0.00000000	      0.00000000	     79.23030930	     -8.95221827	     47.58132543	     33.43857473	     42.41902543	      0.00000000	      0.00000000
      2.51000000	    -19.14102290	     -8.10209824	      0.39463800	      0.26731798	      1.13924969	     -0.24706254	      0.00000000	      0.50000000	      0.00000000	      0.25000000	     73.60321094	     -0.39578847	     -5.30422747	    109.27797504	      1.90726046	     -5.44834901	    -13.15348799	      0.00000000	      0.00000000	     38.34252288	    -10.27951037	      4.33574016	     25.93794188	      0.45270249	    -24.64044133	    -13.19061192	      0.00000000	      0.00000000	    -55.32822242	      4.58475697	      9.40894178	     81.78733998	    -11.32609864	     53.26968042	     24.13513963	     42.22471347	      0.00000000	      0.00000000	     79.20895467	     -9.02748797	     47.60822133	     33.36048685	     42.41995499	      0.00000000	      0.00000000
      2.51500000	    -19.46085919	     -8.69637516	      0.20363052	      0.26796888	      1.14026866	     -0.24812698	      0.00000000	      0.50000000	      0.00000000	      0.25000000	     74.63913438	     -0.14335344	     -5.74644183	    109.61442055	      1.91313255	     -4.80123357	    -13.00020712	      0.00000000	      0.00000000	     37.50096640	    -11.06307043	      3.61676898	     24.40596878	      0.42596451	    -25.73897774	    -12.31523488	      0.00000000	      0.00000000	    -55.21893006	      4.99793160	      9.83586207	     81.89574307	    -11.23888979	     53.36201126	     24.06736142	     42.23394586	      0.00000000	      0.00000000	     79.20642943	     -9.06168653	     47.64425872	     33.26872126	     42.41958897	      0.00000000	      0.00000000
      2.52000000	    -19.80840599	     -9.23857555	     -0.01799045	      0.26856507	      1.14150734	     -0.24921501	      0.00000000	      0.50000000	      0.00000000	      0.25000000	     75.66013671	      0.07828912	     -6.14518679	    109.82654489	      1.91683481	     -4.16205137	    -12.71064856	      0.00000000	      0.00000000	     36.70227345	    -11.81141368	      2.83009345	     22.91025995	      0.39985947	    -26.83413303	    -11.35365129	      0.00000000	      0.00000000	    -55.16195022	      5.34416786	     10.23322756	     82.02865918	    -11.21260860	     53.41561974	     24.03502174	     42.24244191	      0.00000000	      0.00000000	     79.20230944	     -9.08564416	     47.68771558	     33.14738538	     42.41457906	      0.00000000	      0.00000000
      2.52500000	    -19.93643064	     -9.54896633	     -0.44150397	      0.26964844	      1.14321202	     -0.25017379	      0.00000000	      0.50000000	      0.00000000	      0.25000000	     76.41822821	      0.43525168	     -6.22148820	    109.97421386	      1.91941212	     -3.38136813	    -12.13298905	      0.00000000	      0.00000000	     35.53990312	    -12.51520055	      1.44724651	     21.43811580	      0.37416571	    -27.87578235	    -10.24598371	      0.00000000	      0.00000000	    -55.30077064	      5.31108730	     10.67976521	     82.03233203	    -11.35977243	     53.51729293	     24.03757565	     42.28452165	      0.00000000	      0.00000000	     79.28634668	     -8.87314219	     47.82904470	     32.83963567	     42.40777102	      0.00000000	      0.00000000
      2.53000000	    -20.36080139	    -10.03389580	     -0.57580518	      0.27018592	      1.14447526	     -0.25154655	      0.00000000	      0.50000000	      0.00000000	      0.25000000	     77.44846233	      0.51000158	     -6.62383616	    109.97393223	      1.91940721	     -2.90532267	    -12.08680197	      0.00000000	      0.00000000	     34.95249612	    -13.11632860	      0.79584925	     20.21696529	      0.35285261	    -28.87535824	     -9.28450204	      0.00000000	      0.00000000	    -55.17299362	      5.72783105	     10.97204623	     82.15311883	    -11.36642307	     53.51950506	     24.17436434	     42.31168845	      0.00000000	      0.00000000	     79.34189047	     -8.89896461	     47.87756771	     32.68074331	     42.39557843	      0.00000000	      0.00000000
      2.53500000	    -20.69528922	    -10.39884733	     -0.81284223	      0.27091178	      1.14604904	     -0.25277461	      0.00000000	      0.50000000	      0.00000000	      0.25000000	     78.35832172	      0.60070628	     -6.94680474	    109.84305615	      1.91712299	     -2.59655200	    -12.00797733	      0.00000000	      0.00000000	     34.22893726	    -13.66876470	     -0.08787244	     19.04446278	      0.33238858	    -29.92125937	     -8.25317533	      0.00000000	      0.00000000	    -55.12127272	      5.94160143	     11.27735452	     82.14589919	    -11.43613188	     53.50089203	     24.37179499	     42.34839859	      0.00000000	      0.00000000	     79.36268309	     -8.87594910	     47.96354486	     32.49405074	     42.38490617	      0.00000000	      0.00000000
      2.54000000	    -20.79172174	    -10.50663951	     -1.28090215	      0.27198259	      1.14818716	     -0.25381336	      0.00000000	      0.50000000	      0.00000000	      0.25000000	     78.93757190	      0.87845380	     -6.93499230	    109.58147969	      1.91255762	     -2.23667551	    -11.89141003	      0.00000000	      0.00000000	     33.13107112	    -14.14482615	     -1.61730290	     17.93399328	      0.31300723	    -30.71042276	     -7.16360727	      0.00000000	      0.00000000	    -55.35505825	      5.71843891	     11.66015847	     81.99042417	    -11.91728306	     53.28587900	     25.12001883	     42.46522931	      0.00000000	      0.00000000	     79.63292307	     -8.54080937	     48.30455559	     31.97526244	     42.36752964	      0.00000000	      0.00000000
      2.54500000	    -21.19781236	    -10.81440334	     -1.43859722	      0.27243170	      1.14954231	     -0.25521789	      0.00000000	      0.50000000	      0.00000000	      0.25000000	     79.85497179	      0.84866172	     -7.25046800	    109.27560357	      1.90721907	     -2.05542171	    -11.98074192	      0.00000000	      0.00000000	     32.67983601	    -14.51602083	     -2.08559930	     17.16447596	      0.29957662	    -31.53445838	     -6.47443667	      0.00000000	      0.00000000	    -55.25222933	      5.93098248	     11.77479930	     82.10022207	    -11.96077308	     53.19975528	     25.41643713	     42.50441383	      0.00000000	      0.00000000	     79.73137618	     -8.47644853	     48.44386012	     31.82129733	     42.36635084	      0.00000000	      0.00000000
      2.55000000	    -21.56435245	    -10.98332031	     -1.68992256	      0.27294670	      1.15112053	     -0.25656978	      0.00000000	      0.50000000	      0.00000000	      0.25000000	     80.65626376	      0.84318040	     -7.47256075	    108.80694908	      1.89903951	     -2.01954556	    -12.22460292	      0.00000000	      0.00000000	     32.19057575	    -14.78581702	     -2.70704016	     16.54426836	      0.28875196	    -32.16082266	     -5.94290796	      0.00000000	      0.00000000	    -55.17888608	      5.99128080	     11.89185629	     82.10995188	    -12.05056522	     53.08821227	     25.75349041	     42.54854632	      0.00000000	      0.00000000	     79.86923490	     -8.47947527	     48.61611137	     31.57770930	     42.35546587	      0.00000000	      0.00000000
      2.55500000	    -21.86462541	    -11.03752153	     -1.99957018	      0.27345181	      1.15260434	     -0.25774743	      0.00000000	      0.50000000	      0.00000000	      0.25000000	     81.38713352	      0.86571842	     -7.67339692	    108.26287838	      1.88954369	     -2.41129119	    -13.12817575	      0.00000000	      0.00000000	     31.76283463	    -14.99000664	     -3.49299356	     16.31877093	      0.28481628	    -32.36270200	     -5.51686991	      0.00000000	      0.00000000	    -55.10307406	      5.77211035	     12.13288035	     81.71291066	    -12.78780268	     52.23770009	     27.28682478	     42.72029790	      0.00000000	      0.00000000	     80.47091579	     -8.02739980	     50.00889100	     30.32344474	     42.37498960	      0.00000000	      0.00000000
      2.56000000	    -22.05514192	    -11.05074527	     -2.05328191	      0.27381096	      1.15409916	     -0.25950493	      0.00000000	      0.50000000	      0.00000000	      0.25000000	     81.90084984	      0.54555795	     -7.86074400	    107.67635255	      1.87930688	     -2.22322316	    -13.19921546	      0.00000000	      0.00000000	     31.40040124	    -14.93057111	     -3.65594288	     16.36524075	      0.28562733	    -32.37671402	     -5.53669241	      0.00000000	      0.00000000	    -55.14041849	      5.83012655	     12.05310470	     81.75375162	    -12.77415561	     52.21961808	     27.31552534	     42.72242918	      0.00000000	      0.00000000	     80.54006188	     -8.00949139	     50.03549192	     30.30412272	     42.37518675	      0.00000000	      0.00000000
      2.56500000	    -22.68462509	    -11.23117186	     -2.17308820	      0.27384895	      1.15493601	     -0.26091063	      0.00000000	      0.50000000	      0.00000000	      0.25000000	     82.78475658	      0.41825178	     -8.27883631	    106.93284815	      1.86633028	     -2.14779378	    -14.07612712	      0.00000000	      0.00000000	     31.73302136	    -15.02432694	     -3.53290147	     16.74007292	      0.29216939	    -32.54494820	     -6.12568282	      0.00000000	      0.00000000	    -54.68012937	      6.00727775	     11.95995366	     81.63291376	    -12.43601948	     51.05367435	     27.51905707	     42.65594697	      0.00000000	      0.00000000	     81.35192994	     -8.05289384	     52.74030561	     28.63435272	     42.54009219	      0.00000000	      0.00000000
